<svg width="84" height="20" viewBox="0 0 84 20" fill="none" xmlns="http://www.w3.org/2000/svg">
<rect width="84" height="20" fill="#F4C20D"/>
<rect width="84" height="20" fill="#F4C20D"/>
<path d="M19.1055 13.8859C19.2773 13.8859 19.4434 13.8742 19.6035 13.8507C19.7637 13.8234 19.8906 13.796 19.9844 13.7687V14.5128C19.8789 14.5636 19.7227 14.6046 19.5156 14.6359C19.3125 14.671 19.1289 14.6886 18.9648 14.6886C17.7227 14.6886 17.1016 14.0343 17.1016 12.7257V8.90541H16.1816V8.43666L17.1016 8.03236L17.5117 6.66127H18.0742V8.14955H19.9375V8.90541H18.0742V12.6847C18.0742 13.0714 18.166 13.3683 18.3496 13.5753C18.5332 13.7824 18.7852 13.8859 19.1055 13.8859ZM25.668 14.5714V10.4171C25.668 9.89369 25.5488 9.50307 25.3105 9.24525C25.0723 8.98744 24.6992 8.85854 24.1914 8.85854C23.5156 8.85854 23.0215 9.04213 22.709 9.40932C22.4004 9.7765 22.2461 10.3781 22.2461 11.214V14.5714H21.2734V5.45424H22.2461V8.214C22.2461 8.54604 22.2305 8.82143 22.1992 9.04018H22.2578C22.4492 8.73158 22.7207 8.4894 23.0723 8.31361C23.4277 8.13393 23.832 8.04408 24.2852 8.04408C25.0703 8.04408 25.6582 8.23158 26.0488 8.60658C26.4434 8.97768 26.6406 9.56947 26.6406 10.382V14.5714H25.668ZM31.3574 14.6886C30.4082 14.6886 29.6582 14.3996 29.1074 13.8214C28.5605 13.2433 28.2871 12.4406 28.2871 11.4132C28.2871 10.3781 28.541 9.5558 29.0488 8.94643C29.5605 8.33705 30.2461 8.03236 31.1055 8.03236C31.9102 8.03236 32.5469 8.29799 33.0156 8.82924C33.4844 9.35658 33.7188 10.0538 33.7188 10.921V11.5363H29.2949C29.3145 12.2902 29.5039 12.8624 29.8633 13.2531C30.2266 13.6437 30.7363 13.839 31.3926 13.839C32.084 13.839 32.7676 13.6945 33.4434 13.4054V14.2726C33.0996 14.421 32.7734 14.5265 32.4648 14.589C32.1602 14.6554 31.791 14.6886 31.3574 14.6886ZM31.0938 8.84682C30.5781 8.84682 30.166 9.01479 29.8574 9.35072C29.5527 9.68666 29.373 10.1515 29.3184 10.7453H32.6758C32.6758 10.132 32.5391 9.66322 32.2656 9.339C31.9922 9.01088 31.6016 8.84682 31.0938 8.84682ZM34.2812 16.8273C33.9141 16.8273 33.625 16.7746 33.4141 16.6691V15.8195C33.6914 15.8976 33.9805 15.9367 34.2812 15.9367C34.668 15.9367 34.9609 15.8195 35.1602 15.5851C35.3633 15.3507 35.4648 15.0128 35.4648 14.5714V6.00502H36.4609V14.4894C36.4609 15.2316 36.2734 15.8058 35.8984 16.2121C35.5234 16.6222 34.9844 16.8273 34.2812 16.8273ZM43.5742 12.2921C43.5742 13.046 43.3008 13.6339 42.7539 14.0558C42.207 14.4777 41.4648 14.6886 40.5273 14.6886C39.5117 14.6886 38.7305 14.5578 38.1836 14.296V13.3351C38.5352 13.4835 38.918 13.6007 39.332 13.6867C39.7461 13.7726 40.1562 13.8156 40.5625 13.8156C41.2266 13.8156 41.7266 13.6906 42.0625 13.4406C42.3984 13.1867 42.5664 12.8351 42.5664 12.3859C42.5664 12.089 42.5059 11.8468 42.3848 11.6593C42.2676 11.4679 42.0684 11.2921 41.7871 11.132C41.5098 10.9718 41.0859 10.7902 40.5156 10.5871C39.7188 10.3019 39.1484 9.964 38.8047 9.57338C38.4648 9.18275 38.2949 8.67299 38.2949 8.04408C38.2949 7.38393 38.543 6.85854 39.0391 6.46791C39.5352 6.07729 40.1914 5.88197 41.0078 5.88197C41.8594 5.88197 42.6426 6.03822 43.3574 6.35072L43.0469 7.21791C42.3398 6.92104 41.6523 6.7726 40.9844 6.7726C40.457 6.7726 40.0449 6.88588 39.748 7.11244C39.4512 7.339 39.3027 7.65346 39.3027 8.0558C39.3027 8.35268 39.3574 8.59682 39.4668 8.78822C39.5762 8.97572 39.7598 9.14955 40.0176 9.30971C40.2793 9.46596 40.6777 9.63979 41.2129 9.83119C42.1113 10.1515 42.7285 10.4953 43.0645 10.8624C43.4043 11.2296 43.5742 11.7062 43.5742 12.2921ZM45.3262 6.00502H47.7461C48.8828 6.00502 49.7051 6.17494 50.2129 6.51479C50.7207 6.85463 50.9746 7.39174 50.9746 8.12611C50.9746 8.63393 50.832 9.05385 50.5469 9.38588C50.2656 9.714 49.8535 9.9269 49.3105 10.0246V10.0831C50.6113 10.3058 51.2617 10.9894 51.2617 12.1339C51.2617 12.8996 51.002 13.4972 50.4824 13.9269C49.9668 14.3566 49.2441 14.5714 48.3145 14.5714H45.3262V6.00502ZM46.3223 9.67299H47.9629C48.666 9.67299 49.1719 9.56361 49.4805 9.34486C49.7891 9.12221 49.9434 8.74916 49.9434 8.22572C49.9434 7.74525 49.7715 7.39955 49.4277 7.18861C49.084 6.97377 48.5371 6.86635 47.7871 6.86635H46.3223V9.67299ZM46.3223 10.5167V13.7218H48.1094C48.8008 13.7218 49.3203 13.589 49.668 13.3234C50.0195 13.0538 50.1953 12.6339 50.1953 12.0636C50.1953 11.5324 50.0156 11.1417 49.6562 10.8917C49.3008 10.6417 48.7578 10.5167 48.0273 10.5167H46.3223ZM53.9336 14.5714H52.9609V5.45424H53.9336V14.5714ZM61.5391 11.3546C61.5391 12.4015 61.2754 13.2199 60.748 13.8097C60.2207 14.3956 59.4922 14.6886 58.5625 14.6886C57.9883 14.6886 57.4785 14.5538 57.0332 14.2843C56.5879 14.0148 56.2441 13.6281 56.002 13.1242C55.7598 12.6203 55.6387 12.0304 55.6387 11.3546C55.6387 10.3078 55.9004 9.4933 56.4238 8.91127C56.9473 8.32533 57.6738 8.03236 58.6035 8.03236C59.502 8.03236 60.2148 8.33119 60.7422 8.92885C61.2734 9.5265 61.5391 10.3351 61.5391 11.3546ZM56.6465 11.3546C56.6465 12.1749 56.8105 12.7999 57.1387 13.2296C57.4668 13.6593 57.9492 13.8742 58.5859 13.8742C59.2227 13.8742 59.7051 13.6613 60.0332 13.2355C60.3652 12.8058 60.5312 12.1788 60.5312 11.3546C60.5312 10.5382 60.3652 9.91908 60.0332 9.49721C59.7051 9.07143 59.2188 8.85854 58.5742 8.85854C57.9375 8.85854 57.457 9.06752 57.1328 9.48549C56.8086 9.90346 56.6465 10.5265 56.6465 11.3546ZM68.5059 8.14955V8.76479L67.3164 8.90541C67.4258 9.04213 67.5234 9.22182 67.6094 9.44447C67.6953 9.66322 67.7383 9.91127 67.7383 10.1886C67.7383 10.8175 67.5234 11.3195 67.0938 11.6945C66.6641 12.0695 66.0742 12.257 65.3242 12.257C65.1328 12.257 64.9531 12.2413 64.7852 12.2101C64.3711 12.4288 64.1641 12.7042 64.1641 13.0363C64.1641 13.2121 64.2363 13.3429 64.3809 13.4288C64.5254 13.5109 64.7734 13.5519 65.125 13.5519H66.2617C66.957 13.5519 67.4902 13.6984 67.8613 13.9913C68.2363 14.2843 68.4238 14.7101 68.4238 15.2687C68.4238 15.9796 68.1387 16.5206 67.5684 16.8917C66.998 17.2667 66.166 17.4542 65.0723 17.4542C64.2324 17.4542 63.584 17.298 63.127 16.9855C62.6738 16.673 62.4473 16.2316 62.4473 15.6613C62.4473 15.2706 62.5723 14.9328 62.8223 14.6476C63.0723 14.3624 63.4238 14.1691 63.877 14.0675C63.7129 13.9933 63.5742 13.8781 63.4609 13.7218C63.3516 13.5656 63.2969 13.3839 63.2969 13.1769C63.2969 12.9425 63.3594 12.7374 63.4844 12.5617C63.6094 12.3859 63.8066 12.216 64.0762 12.0519C63.7441 11.9152 63.4727 11.6828 63.2617 11.3546C63.0547 11.0265 62.9512 10.6515 62.9512 10.2296C62.9512 9.5265 63.1621 8.98549 63.584 8.60658C64.0059 8.22377 64.6035 8.03236 65.377 8.03236C65.7129 8.03236 66.0156 8.07143 66.2852 8.14955H68.5059ZM63.3848 15.6496C63.3848 15.9972 63.5312 16.2609 63.8242 16.4406C64.1172 16.6203 64.5371 16.7101 65.084 16.7101C65.9004 16.7101 66.5039 16.5871 66.8945 16.341C67.2891 16.0988 67.4863 15.7687 67.4863 15.3507C67.4863 15.0031 67.3789 14.7609 67.1641 14.6242C66.9492 14.4913 66.5449 14.4249 65.9512 14.4249H64.7852C64.3438 14.4249 64 14.5304 63.7539 14.7413C63.5078 14.9523 63.3848 15.255 63.3848 15.6496ZM63.9121 10.2062C63.9121 10.6554 64.0391 10.9953 64.293 11.2257C64.5469 11.4562 64.9004 11.5714 65.3535 11.5714C66.3027 11.5714 66.7773 11.1105 66.7773 10.1886C66.7773 9.22377 66.2969 8.74135 65.3359 8.74135C64.8789 8.74135 64.5273 8.8644 64.2812 9.11049C64.0352 9.35658 63.9121 9.72182 63.9121 10.2062Z" fill="black"/>
<path d="M9 9.99999L0 20L0 -1.04877e-05L9 9.99999Z" fill="black"/>
</svg>
